<svg id="Layer_1" data-name="Layer 1" xmlns="http://www.w3.org/2000/svg" viewBox="0 0 9.43 13.18"><defs><style>.cls-1{fill:#7fffd4;}</style></defs><title>geo-tag-active</title><path class="cls-1" d="M4.72,1A4.37,4.37,0,0,0,.34,5.34c0,2.41,4.37,7.85,4.37,7.85S9.09,7.75,9.09,5.34A4.37,4.37,0,0,0,4.72,1ZM6.9,4.66H5.78V4.58c0-.64-.55-.85-1-.85a1,1,0,0,0-1.07,1V6.4a1,1,0,0,0,1.08,1c.54,0,1-.25,1-.88V6.34H4.53v-1H6.9V6.57A1.89,1.89,0,0,1,4.79,8.36,2,2,0,0,1,2.53,6.44V4.75a2,2,0,0,1,2.23-2c1,0,2.15.5,2.15,1.74Z"/></svg>